<svg width="55" height="43" viewBox="0 0 55 43" fill="none" xmlns="http://www.w3.org/2000/svg">
<path d="M13.8111 39.1583V36.8804C13.8111 36.0072 13.2939 35.4378 12.4071 35.4378C11.9638 35.4378 11.4835 35.5896 11.1509 36.0832C10.8923 35.6656 10.5228 35.4378 9.96862 35.4378C9.59914 35.4378 9.22967 35.5517 8.93409 35.9693V35.5137H8.1582V39.1583H8.93409V37.1462C8.93409 36.5008 9.26662 36.1971 9.78388 36.1971C10.3011 36.1971 10.5598 36.5387 10.5598 37.1462V39.1583H11.3357V37.1462C11.3357 36.5008 11.7051 36.1971 12.1854 36.1971C12.7027 36.1971 12.9613 36.5387 12.9613 37.1462V39.1583H13.8111ZM25.3017 35.5137H24.0455V34.4127H23.2696V35.5137H22.5676V36.235H23.2696V37.9055C23.2696 38.7407 23.6021 39.2342 24.4889 39.2342C24.8214 39.2342 25.1909 39.1203 25.4495 38.9685L25.2278 38.2851C25.0061 38.437 24.7475 38.4749 24.5628 38.4749C24.1933 38.4749 24.0455 38.2471 24.0455 37.8675V36.235H25.3017V35.5137ZM31.8783 35.4378C31.4349 35.4378 31.1394 35.6655 30.9546 35.9693V35.5137H30.1787V39.1583H30.9546V37.1082C30.9546 36.5008 31.2133 36.1591 31.6936 36.1591C31.8414 36.1591 32.0261 36.1971 32.1739 36.235L32.3956 35.4757C32.2478 35.4378 32.0261 35.4378 31.8783 35.4378ZM21.9395 35.8174C21.57 35.5517 21.0528 35.4378 20.4986 35.4378C19.6118 35.4378 19.0207 35.8933 19.0207 36.6147C19.0207 37.2221 19.464 37.5638 20.2399 37.6777L20.6094 37.7156C21.0158 37.7916 21.2375 37.9055 21.2375 38.0953C21.2375 38.361 20.9419 38.5508 20.4247 38.5508C19.9074 38.5508 19.501 38.361 19.2424 38.1712L18.8729 38.7786C19.2793 39.0824 19.8335 39.2342 20.3877 39.2342C21.4222 39.2342 22.0134 38.7407 22.0134 38.0573C22.0134 37.4119 21.5331 37.0702 20.7941 36.9563L20.4247 36.9184C20.0921 36.8804 19.8335 36.8045 19.8335 36.5767C19.8335 36.3109 20.0921 36.1591 20.4986 36.1591C20.9419 36.1591 21.3853 36.3489 21.607 36.4628L21.9395 35.8174ZM42.556 35.4378C42.1127 35.4378 41.8171 35.6655 41.6324 35.9693V35.5137H40.8565V39.1583H41.6324V37.1082C41.6324 36.5008 41.891 36.1591 42.3713 36.1591C42.5191 36.1591 42.7038 36.1971 42.8516 36.235L43.0733 35.4757C42.9255 35.4378 42.7038 35.4378 42.556 35.4378ZM32.6542 37.336C32.6542 38.437 33.3931 39.2342 34.5385 39.2342C35.0558 39.2342 35.4252 39.1203 35.7947 38.8166L35.4252 38.1712C35.1297 38.399 34.8341 38.5129 34.5016 38.5129C33.8734 38.5129 33.4301 38.0573 33.4301 37.336C33.4301 36.6526 33.8734 36.1971 34.5016 36.1591C34.8341 36.1591 35.1297 36.273 35.4252 36.5008L35.7947 35.8554C35.4252 35.5517 35.0558 35.4378 34.5385 35.4378C33.3931 35.4378 32.6542 36.235 32.6542 37.336ZM39.8219 37.336V35.5137H39.0461V35.9693C38.7874 35.6276 38.418 35.4378 37.9376 35.4378C36.9401 35.4378 36.1642 36.235 36.1642 37.336C36.1642 38.437 36.9401 39.2342 37.9376 39.2342C38.4549 39.2342 38.8244 39.0444 39.0461 38.7027V39.1583H39.8219V37.336ZM36.977 37.336C36.977 36.6906 37.3834 36.1591 38.0485 36.1591C38.6766 36.1591 39.12 36.6526 39.12 37.336C39.12 37.9814 38.6766 38.5129 38.0485 38.5129C37.3834 38.4749 36.977 37.9814 36.977 37.336ZM27.7033 35.4378C26.6687 35.4378 25.9298 36.1971 25.9298 37.336C25.9298 38.4749 26.6687 39.2342 27.7402 39.2342C28.2575 39.2342 28.7747 39.0824 29.1812 38.7407L28.8117 38.1712C28.5161 38.399 28.1466 38.5508 27.7772 38.5508C27.2969 38.5508 26.8165 38.3231 26.7057 37.6777H29.3289V37.374C29.3659 36.1971 28.7008 35.4378 27.7033 35.4378ZM27.7033 36.1211C28.1836 36.1211 28.5161 36.4248 28.59 36.9943H26.7426C26.8165 36.5008 27.1491 36.1211 27.7033 36.1211ZM46.9528 37.336V34.071H46.1769V35.9693C45.9182 35.6276 45.5488 35.4378 45.0685 35.4378C44.0709 35.4378 43.295 36.235 43.295 37.336C43.295 38.437 44.0709 39.2342 45.0685 39.2342C45.5857 39.2342 45.9552 39.0444 46.1769 38.7027V39.1583H46.9528V37.336ZM44.1078 37.336C44.1078 36.6906 44.5142 36.1591 45.1793 36.1591C45.8074 36.1591 46.2508 36.6526 46.2508 37.336C46.2508 37.9814 45.8074 38.5129 45.1793 38.5129C44.5142 38.4749 44.1078 37.9814 44.1078 37.336ZM18.1709 37.336V35.5137H17.395V35.9693C17.1364 35.6276 16.7669 35.4378 16.2866 35.4378C15.289 35.4378 14.5131 36.235 14.5131 37.336C14.5131 38.437 15.289 39.2342 16.2866 39.2342C16.8038 39.2342 17.1733 39.0444 17.395 38.7027V39.1583H18.1709V37.336ZM15.289 37.336C15.289 36.6906 15.6954 36.1591 16.3605 36.1591C16.9886 36.1591 17.4319 36.6526 17.4319 37.336C17.4319 37.9814 16.9886 38.5129 16.3605 38.5129C15.6954 38.4749 15.289 37.9814 15.289 37.336Z" fill="black"/>
<path d="M33.319 7.83765H21.6807V29.3255H33.319V7.83765Z" fill="#FF5F00"/>
<path d="M22.4198 18.5815C22.4198 14.2156 24.4149 10.3432 27.4815 7.83757C25.2278 6.01528 22.3828 4.91431 19.2793 4.91431C11.9268 4.91431 5.97827 11.0266 5.97827 18.5815C5.97827 26.1364 11.9268 32.2487 19.2793 32.2487C22.3828 32.2487 25.2278 31.1477 27.4815 29.3254C24.4149 26.8578 22.4198 22.9474 22.4198 18.5815Z" fill="#EB001B"/>
<path d="M49.0218 18.5815C49.0218 26.1364 43.0733 32.2487 35.7208 32.2487C32.6173 32.2487 29.7723 31.1477 27.5186 29.3254C30.6221 26.8198 32.5803 22.9474 32.5803 18.5815C32.5803 14.2156 30.5852 10.3432 27.5186 7.83757C29.7723 6.01528 32.6173 4.91431 35.7208 4.91431C43.0733 4.91431 49.0218 11.0645 49.0218 18.5815Z" fill="#F79E1B"/>
</svg>
