<svg width="92" height="26" viewBox="0 0 92 26" fill="none" xmlns="http://www.w3.org/2000/svg">
<path fill-rule="evenodd" clip-rule="evenodd" d="M11.3446 0.70459H4.25097C3.76548 0.70459 3.35269 1.06154 3.27695 1.5466L0.407962 19.953C0.3509 20.3161 0.628939 20.6436 0.992951 20.6436H4.37955C4.86496 20.6436 5.27774 20.2868 5.35349 19.8008L6.12725 14.8364C6.20198 14.3503 6.61578 13.9934 7.10017 13.9934H9.3458C14.0185 13.9934 16.7153 11.7054 17.4197 7.17117C17.737 5.18744 17.4331 3.62886 16.5151 2.53731C15.507 1.33856 13.7188 0.70459 11.3446 0.70459ZM12.163 7.4273C11.775 10.003 9.83019 10.003 7.94968 10.003H6.87928L7.63021 5.19277C7.67486 4.90199 7.92373 4.68789 8.2142 4.68789H8.70476C9.98573 4.68789 11.1942 4.68789 11.8185 5.42671C12.191 5.8676 12.3051 6.52251 12.163 7.4273Z" fill="#283B82"/>
<path fill-rule="evenodd" clip-rule="evenodd" d="M32.5486 7.34446H29.1518C28.8624 7.34446 28.6125 7.55859 28.5677 7.84934L28.4175 8.81074L28.1799 8.46225C27.4445 7.38219 25.8045 7.02121 24.1678 7.02121C20.4141 7.02121 17.208 9.89809 16.5836 13.9337C16.259 15.9468 16.7205 17.8718 17.849 19.2141C18.8842 20.4484 20.3653 20.9627 22.1277 20.9627C25.1523 20.9627 26.8294 18.9948 26.8294 18.9948L26.678 19.9499C26.6208 20.3152 26.8989 20.6426 27.261 20.6426H30.3206C30.8071 20.6426 31.2179 20.2858 31.2947 19.7999L33.1305 8.03507C33.1887 7.67295 32.9117 7.34446 32.5486 7.34446ZM27.8137 14.0345C27.486 15.9982 25.9456 17.3166 23.9812 17.3166C22.9948 17.3166 22.2064 16.9964 21.7002 16.3897C21.1982 15.7873 21.0074 14.9298 21.1672 13.9746C21.4731 12.0277 23.0394 10.6664 24.9737 10.6664C25.9385 10.6664 26.7225 10.9907 27.2391 11.6025C27.7568 12.2207 27.9619 13.0835 27.8137 14.0345Z" fill="#283B82"/>
<path d="M47.2265 7.34447H50.64C51.1183 7.34447 51.3972 7.88708 51.1254 8.28391L39.772 24.8673C39.5885 25.136 39.2855 25.2956 38.962 25.2956H35.5526C35.0722 25.2956 34.7921 24.7485 35.0702 24.3508L38.6051 19.3013L34.8452 8.13583C34.7155 7.74748 34.9986 7.34447 35.4063 7.34447H38.7607C39.1963 7.34447 39.5811 7.63413 39.7066 8.05612L41.7022 14.7997L46.4102 7.78221C46.5948 7.50821 46.9008 7.34447 47.2265 7.34447Z" fill="#283B82"/>
<path d="M84.238 19.9534L87.1497 1.20996C87.1942 0.919367 87.4431 0.704977 87.7325 0.704102H91.0102C91.3723 0.704102 91.6502 1.03258 91.593 1.39589L88.7221 19.8012C88.6474 20.2872 88.2345 20.644 87.748 20.644H84.8211C84.459 20.644 84.1811 20.3164 84.238 19.9534Z" fill="#469BDB"/>
<path fill-rule="evenodd" clip-rule="evenodd" d="M61.9417 0.704975H54.8471C54.3627 0.704975 53.9498 1.06193 53.8741 1.54699L51.0051 19.9534C50.9482 20.3164 51.2261 20.644 51.5881 20.644H55.2288C55.5669 20.644 55.8564 20.3943 55.9092 20.0542L56.7234 14.8368C56.798 14.3507 57.212 13.9938 57.6964 13.9938H59.941C64.6146 13.9938 67.3105 11.7057 68.0158 7.17156C68.3343 5.18783 68.0283 3.62924 67.1103 2.53769C66.1031 1.33895 64.316 0.704975 61.9417 0.704975ZM62.7602 7.42769C62.3732 10.0034 60.4286 10.0034 58.5469 10.0034H57.4776L58.2296 5.19315C58.2742 4.90238 58.5209 4.68827 58.8124 4.68827H59.303C60.5831 4.68827 61.7924 4.68827 62.4167 5.4271C62.7892 5.86799 62.9022 6.52289 62.7602 7.42769Z" fill="#469BDB"/>
<path fill-rule="evenodd" clip-rule="evenodd" d="M83.1449 7.34485H79.7501C79.4586 7.34485 79.2106 7.55897 79.1671 7.84972L79.0167 8.81113L78.7782 8.46263C78.0428 7.38258 76.4039 7.0216 74.7672 7.0216C71.0133 7.0216 67.8084 9.89847 67.1839 13.9341C66.8603 15.9472 67.3198 17.8721 68.4484 19.2145C69.4856 20.4488 70.9646 20.9631 72.7268 20.9631C75.7514 20.9631 77.4286 18.9952 77.4286 18.9952L77.2771 19.9503C77.2202 20.3156 77.4981 20.643 77.8623 20.643H80.9211C81.4054 20.643 81.8183 20.2861 81.8941 19.8003L83.731 8.03545C83.7868 7.67333 83.5089 7.34485 83.1449 7.34485ZM78.4098 14.0349C78.0841 15.9986 76.5418 17.317 74.5774 17.317C73.5929 17.317 72.8026 16.9968 72.2964 16.3901C71.7945 15.7877 71.6056 14.9302 71.7634 13.975C72.0713 12.0281 73.6356 10.6668 75.5701 10.6668C76.5346 10.6668 77.3187 10.9911 77.8353 11.6029C78.3549 12.2211 78.5602 13.0839 78.4098 14.0349Z" fill="#469BDB"/>
</svg>
