<svg width="108" height="29" viewBox="0 0 108 29" fill="none" xmlns="http://www.w3.org/2000/svg">
<path fill-rule="evenodd" clip-rule="evenodd" d="M105.806 11.1068C105.806 12.7604 104.481 14.1011 102.847 14.1011C101.212 14.1011 99.8872 12.7604 99.8872 11.1068C99.8872 9.4532 101.212 8.11255 102.847 8.11255C104.481 8.11255 105.806 9.4532 105.806 11.1068Z" fill="#7887E6"/>
<path fill-rule="evenodd" clip-rule="evenodd" d="M105.806 20.4777C105.806 22.1313 104.481 23.4719 102.847 23.4719C101.212 23.4719 99.8872 22.1313 99.8872 20.4777C99.8872 18.8241 101.212 17.4834 102.847 17.4834C104.481 17.4834 105.806 18.8241 105.806 20.4777Z" fill="#FF5073"/>
<path fill-rule="evenodd" clip-rule="evenodd" d="M9.51277 12.426H7.15427V6.73264H9.51277C11.191 6.73264 12.1283 7.91062 12.1283 9.60845C12.1283 11.4212 11.0764 12.426 9.51277 12.426ZM10.0255 3.28054H2.49243V23.1266H7.15427V15.8781H10.0255C13.8053 15.8781 16.6489 13.4915 16.6489 9.43524C16.6489 5.92692 14.516 3.28054 10.0255 3.28054ZM41.1626 8.45775L38.035 17.2229L34.444 8.45775H29.7881L35.92 22.4363L34.0073 27.242H38.3353L45.6815 8.45775H41.1626ZM74.7585 7.85357V8.45775H72.342V11.5928H74.7585V23.1266H79.2782V11.5928H82.4052V8.45775H79.2782V7.68118C79.2782 6.38683 79.7899 5.46639 81.1828 5.46639C81.6093 5.46639 82.1494 5.55279 82.5188 5.66772V2.38884C81.8933 2.21624 81.1828 2.10132 80.3585 2.10132C76.6915 2.10132 74.7585 4.37336 74.7585 7.85357ZM66.4912 19.9052C66.0649 20.2217 65.4111 20.4807 64.7004 20.4807C63.5634 20.4807 62.7959 19.819 62.7959 18.7547C62.7959 17.5468 63.7366 16.3651 66.4912 16.8277V19.9052ZM65.6099 8.11277C62.7959 8.11277 60.5785 9.00448 59.2141 9.86724L60.4649 12.4847C61.2892 12.1108 63.0232 11.4491 64.5015 11.4491C65.5531 11.4491 66.4912 11.823 66.4912 12.9448V13.9227C60.222 13.4715 58.42 16.2621 58.42 18.8393C58.42 21.3577 60.5272 23.4718 63.3009 23.4718C64.3952 23.4718 65.5827 23.0532 66.4912 22.4763V23.1266H71.0395V12.9161C71.0395 9.60845 68.9643 8.11277 65.6099 8.11277ZM25.1306 19.9052C24.7044 20.2217 24.0505 20.4807 23.3398 20.4807C22.2027 20.4807 21.4352 19.819 21.4352 18.7547C21.4352 17.5468 22.3759 16.3651 25.1306 16.8277V19.9052ZM24.0797 8.11277C21.2654 8.11277 19.0483 9.00448 17.6837 9.86724L18.9345 12.4847C19.7588 12.1108 21.493 11.4491 22.971 11.4491C24.0229 11.4491 24.961 11.823 24.961 12.9448V13.9227C18.6916 13.4715 16.8898 16.2621 16.8898 18.8393C16.8898 21.3577 18.9968 23.4718 21.7704 23.4718C22.865 23.4718 24.0523 23.0532 24.961 22.4763V23.1266H29.5093V12.9161C29.5093 9.60845 27.4341 8.11277 24.0797 8.11277ZM50.3609 12.5996C50.3609 11.9094 51.043 11.4778 52.1801 11.4778C53.3739 11.4778 54.6246 11.9094 55.5345 12.3121L56.8135 9.292C55.6196 8.68802 53.8003 8.11277 51.9527 8.11277C48.5699 8.11277 45.841 9.66592 45.841 12.7722C45.841 17.6619 52.6632 16.7702 52.6632 18.9273C52.6632 19.7326 51.8673 20.1353 50.5313 20.1353C49.1668 20.1353 47.8592 19.6752 46.8359 19.1574L45.3861 22.12C47.0917 23.0402 49.0816 23.4718 50.9294 23.4718C54.2268 23.4718 57.0693 21.7461 57.0693 18.5821C57.0693 13.7501 50.3609 14.5554 50.3609 12.5996ZM89.9238 11.3342C91.1747 11.3342 92.1697 12.3408 92.3401 14.2966H87.5077C87.6781 12.3408 88.6732 11.3342 89.9238 11.3342ZM96.9333 16.7127V15.5668C96.9333 11.2654 93.9605 8.11277 89.9238 8.11277C85.8873 8.11277 82.7605 11.3629 82.7605 15.8787C82.7605 20.5092 85.7169 23.4718 90.4355 23.4718C91.7512 23.4718 94.3532 23.2314 96.3595 21.8261L95.0915 18.9746C93.7317 19.7551 92.3532 20.1065 91.1179 20.1065C91.0104 20.1065 90.905 20.1024 90.8006 20.0964C90.7771 20.095 90.7534 20.0935 90.7301 20.0919C90.6311 20.0846 90.5334 20.0749 90.4374 20.0619C90.4155 20.059 90.3945 20.0551 90.3728 20.052C90.295 20.0402 90.2184 20.0263 90.143 20.0106C90.1162 20.005 90.0893 20.0003 90.0631 19.9943C89.9853 19.9765 89.9095 19.9554 89.8343 19.9331C89.7935 19.9209 89.753 19.9085 89.7136 19.8953C89.6595 19.8773 89.6065 19.8575 89.554 19.837C89.4944 19.8134 89.436 19.7888 89.3792 19.7626C89.3622 19.7547 89.3457 19.7465 89.3289 19.7384C89.2368 19.6938 89.1479 19.646 89.0636 19.5945C89.0609 19.5931 89.0587 19.5914 89.056 19.59C88.8676 19.474 88.6985 19.3413 88.5475 19.1944C88.5453 19.1921 88.543 19.19 88.5408 19.1878C88.4787 19.127 88.4202 19.0633 88.3643 18.9978C88.3426 18.9724 88.321 18.9469 88.3001 18.9205C88.2677 18.88 88.2366 18.8388 88.2064 18.7971C88.1555 18.7256 88.1057 18.653 88.0597 18.5755C88.0585 18.5732 88.057 18.5712 88.0556 18.5689C87.769 18.0811 87.5786 17.467 87.5077 16.7129V16.7127H96.9333Z" fill="#2D2341"/>
</svg>
