<svg width="72" height="24" viewBox="0 0 72 24" fill="none" xmlns="http://www.w3.org/2000/svg">
<path d="M37.2079 7.85149C37.1678 11.0565 40.0261 12.8451 42.1793 13.9084C44.3916 14.9996 45.1347 15.6992 45.1262 16.6748C45.1094 18.1682 43.3615 18.8272 41.7255 18.8529C38.8714 18.8978 37.2122 18.0719 35.8928 17.4472L34.8648 22.3231C36.1883 22.9415 38.6392 23.4806 41.1808 23.5042C47.1465 23.5042 51.0497 20.5195 51.0708 15.8918C51.094 10.0188 43.0554 9.69361 43.1103 7.06843C43.1293 6.27253 43.8787 5.42314 45.521 5.20705C46.3337 5.09794 48.5777 5.0145 51.1214 6.20193L52.1199 1.4843C50.752 0.97938 48.9936 0.49585 46.8045 0.49585C41.1893 0.49585 37.2396 3.52112 37.2079 7.85149ZM61.7144 0.902357C60.6251 0.902357 59.7068 1.54635 59.2973 2.53481L50.7752 23.1575H56.7367L57.923 19.8349H65.208L65.8962 23.1575H71.1505L66.5654 0.902357H61.7144ZM62.5482 6.91438L64.2687 15.2713H59.5569L62.5482 6.91438ZM29.9799 0.902357L25.2809 23.1575H30.9615L35.6585 0.902357H29.9799ZM21.5761 0.902357L15.6632 16.0501L13.2715 3.17024C12.9907 1.73249 11.8825 0.902357 10.6518 0.902357H0.985567L0.850464 1.54849C2.83479 1.98495 5.08932 2.68885 6.45513 3.44196C7.29108 3.90195 7.52962 4.30418 7.80405 5.39747L12.3342 23.1575H18.3379L27.5417 0.902357H21.5761Z" fill="url(#paint0_linear_27_139)"/>
<defs>
<linearGradient id="paint0_linear_27_139" x1="33.1703" y1="23.9657" x2="33.8453" y2="0.336357" gradientUnits="userSpaceOnUse">
<stop stop-color="#222357"/>
<stop offset="1" stop-color="#254AA5"/>
</linearGradient>
</defs>
</svg>
